<mxfile host="app.diagrams.net" modified="2023-02-15T08:06:17.546Z" agent="5.0 (Windows NT 10.0; Win64; x64) AppleWebKit/537.36 (KHTML, like Gecko) Chrome/110.0.0.0 Safari/537.36" etag="LcXPL5qolLouxIb9oiSC" version="20.8.10" type="github">
  <diagram name="Страница 1" id="uJtEfKnaYxjQOBY1TY1z">
    <mxGraphModel dx="1622" dy="698" grid="0" gridSize="10" guides="1" tooltips="1" connect="1" arrows="1" fold="1" page="0" pageScale="1" pageWidth="2336" pageHeight="1654" math="0" shadow="0">
      <root>
        <mxCell id="0" />
        <mxCell id="1" parent="0" />
        <mxCell id="uePYLTky3xgfzCpiDaqf-6" style="edgeStyle=none;curved=1;rounded=0;orthogonalLoop=1;jettySize=auto;html=1;exitX=0;exitY=0.5;exitDx=0;exitDy=0;entryX=1;entryY=0.5;entryDx=0;entryDy=0;fontSize=12;startSize=8;endSize=8;endArrow=none;endFill=0;" edge="1" parent="1" source="uePYLTky3xgfzCpiDaqf-1" target="uePYLTky3xgfzCpiDaqf-4">
          <mxGeometry relative="1" as="geometry" />
        </mxCell>
        <mxCell id="uePYLTky3xgfzCpiDaqf-7" style="edgeStyle=none;curved=1;rounded=0;orthogonalLoop=1;jettySize=auto;html=1;exitX=0;exitY=0.5;exitDx=0;exitDy=0;entryX=1;entryY=0.5;entryDx=0;entryDy=0;fontSize=12;startSize=8;endSize=8;endArrow=none;endFill=0;" edge="1" parent="1" source="uePYLTky3xgfzCpiDaqf-1" target="uePYLTky3xgfzCpiDaqf-3">
          <mxGeometry relative="1" as="geometry" />
        </mxCell>
        <mxCell id="uePYLTky3xgfzCpiDaqf-8" style="edgeStyle=none;curved=1;rounded=0;orthogonalLoop=1;jettySize=auto;html=1;exitX=1;exitY=0.5;exitDx=0;exitDy=0;entryX=0;entryY=0.5;entryDx=0;entryDy=0;fontSize=12;startSize=8;endSize=8;endArrow=none;endFill=0;" edge="1" parent="1" source="uePYLTky3xgfzCpiDaqf-1" target="uePYLTky3xgfzCpiDaqf-5">
          <mxGeometry relative="1" as="geometry" />
        </mxCell>
        <mxCell id="uePYLTky3xgfzCpiDaqf-9" style="edgeStyle=none;curved=1;rounded=0;orthogonalLoop=1;jettySize=auto;html=1;exitX=1;exitY=0.5;exitDx=0;exitDy=0;entryX=0;entryY=0.5;entryDx=0;entryDy=0;fontSize=12;startSize=8;endSize=8;endArrow=none;endFill=0;" edge="1" parent="1" source="uePYLTky3xgfzCpiDaqf-1" target="uePYLTky3xgfzCpiDaqf-2">
          <mxGeometry relative="1" as="geometry" />
        </mxCell>
        <mxCell id="uePYLTky3xgfzCpiDaqf-1" value="Прямая аналогия" style="rounded=1;whiteSpace=wrap;html=1;fontSize=16;" vertex="1" parent="1">
          <mxGeometry x="172" y="188" width="153" height="38" as="geometry" />
        </mxCell>
        <mxCell id="uePYLTky3xgfzCpiDaqf-19" style="edgeStyle=none;curved=1;rounded=0;orthogonalLoop=1;jettySize=auto;html=1;exitX=1;exitY=0.5;exitDx=0;exitDy=0;entryX=0;entryY=0.5;entryDx=0;entryDy=0;fontSize=12;endArrow=none;endFill=0;startSize=8;endSize=8;" edge="1" parent="1" source="uePYLTky3xgfzCpiDaqf-2" target="uePYLTky3xgfzCpiDaqf-16">
          <mxGeometry relative="1" as="geometry" />
        </mxCell>
        <mxCell id="uePYLTky3xgfzCpiDaqf-2" value="Строения" style="ellipse;whiteSpace=wrap;html=1;fontSize=16;" vertex="1" parent="1">
          <mxGeometry x="408" y="242" width="120" height="80" as="geometry" />
        </mxCell>
        <mxCell id="uePYLTky3xgfzCpiDaqf-3" value="Внешних форм" style="ellipse;whiteSpace=wrap;html=1;fontSize=16;" vertex="1" parent="1">
          <mxGeometry x="-43" y="257" width="120" height="80" as="geometry" />
        </mxCell>
        <mxCell id="uePYLTky3xgfzCpiDaqf-11" style="edgeStyle=none;curved=1;rounded=0;orthogonalLoop=1;jettySize=auto;html=1;exitX=0;exitY=0.5;exitDx=0;exitDy=0;entryX=1;entryY=0.5;entryDx=0;entryDy=0;fontSize=12;startSize=8;endSize=8;endArrow=none;endFill=0;" edge="1" parent="1" source="uePYLTky3xgfzCpiDaqf-4" target="uePYLTky3xgfzCpiDaqf-10">
          <mxGeometry relative="1" as="geometry" />
        </mxCell>
        <mxCell id="uePYLTky3xgfzCpiDaqf-4" value="Отношений" style="ellipse;whiteSpace=wrap;html=1;fontSize=16;" vertex="1" parent="1">
          <mxGeometry x="-43" y="95" width="120" height="80" as="geometry" />
        </mxCell>
        <mxCell id="uePYLTky3xgfzCpiDaqf-18" style="edgeStyle=none;curved=1;rounded=0;orthogonalLoop=1;jettySize=auto;html=1;exitX=1;exitY=0.5;exitDx=0;exitDy=0;entryX=0;entryY=0.5;entryDx=0;entryDy=0;fontSize=12;endArrow=none;endFill=0;startSize=8;endSize=8;" edge="1" parent="1" source="uePYLTky3xgfzCpiDaqf-5" target="uePYLTky3xgfzCpiDaqf-17">
          <mxGeometry relative="1" as="geometry" />
        </mxCell>
        <mxCell id="uePYLTky3xgfzCpiDaqf-5" value="Операций" style="ellipse;whiteSpace=wrap;html=1;fontSize=16;" vertex="1" parent="1">
          <mxGeometry x="408" y="95" width="120" height="80" as="geometry" />
        </mxCell>
        <mxCell id="uePYLTky3xgfzCpiDaqf-10" value="Удобство" style="rounded=0;whiteSpace=wrap;html=1;fontSize=16;" vertex="1" parent="1">
          <mxGeometry x="-181" y="124" width="89" height="22" as="geometry" />
        </mxCell>
        <mxCell id="uePYLTky3xgfzCpiDaqf-12" value="" style="shape=image;verticalLabelPosition=bottom;labelBackgroundColor=default;verticalAlign=top;aspect=fixed;imageAspect=0;image=data:image/jpeg,/9j/4AAQSkZJRgABAQAAAQABAAD/2wCEAAoHCBIVFRIREhIVGA8YERgRERgYGBkYEhEYGBgZGhgYGRwcIS4lHB4rIRgZJjomKy8xNjY1GiQ9QDs0Py40NTEBDAwMEA8QHhISHz8sJCs/Pz8/Pz86PzY/Pz82Pz83Pz80PTQ2ND03NDQ/PjE1ND82PjU0PzE6MTo9ND00NDQ2NP/AABEIAKgBLAMBIgACEQEDEQH/xAAbAAACAwEBAQAAAAAAAAAAAAAAAgEDBQQGB//EAEQQAAIBAgMFBQIJCwMFAQAAAAECAAMRBBIhBTFBUWEGInGBkRMyBxQVQlJyobHRU2JzgpKissHC0uEXNPAzQ0RU8SP/xAAZAQEAAwEBAAAAAAAAAAAAAAAAAQIDBQT/xAAmEQEAAgIBAwMFAQEAAAAAAAAAAQIDESEEMUESE1EUImFxoYEV/9oADAMBAAIRAxEAPwD6ZFhAwIMiSYsCJBkyDAUwMIQFMUyy0VhArMWOYkAMWSZEBTFMaKYEGLJMiBEWNIgKYpllojLARohjtFMBDFMYxTAQxWjGK0BTEMcxGgK0raWNK2gKYhjGKYFZiNHMrMAhCRA+jGQYSDAiQZMgwIMgyTCAtpKiMFjKsDsw2FBGZuO4Tk2lTVLWOh5zRwj3XLxH2ieL7XbXOdKSg+0LrlH0UR7liebFbW5CBrXiyMPqoPG0tywKzFIlhSQUgVmKRLGWLaBXIluWQUgVEQtHywCQOjA4XO2XcLXJ5Cd+K2XTykqWDAXuTcHxnPs2tlbX3WGU9LkWMt7TbVTDUHeoDlykG283sth1JZR5wPPB7wmH2axFR0Jf3mZn6DMS1vtm7lgIYplpSKUgUkRTLWWVkQKzFMtyxWSBS0rMtdZU0BGimS0UwEaVmOYjQIhCED6KZBkxYESJMiAS3D07sAd15VOjC+8viIHd8WTr9kPiy9fsl0ICogG6ZeO7P4erUWswYVFBW6mwYXvYgg8SfWa0IHGuzkGgzeo/CFTBoBfvcBvHE25Tsldbd5r/ABCBzpg0IB72oB3jiPCT8RTr6j8JfR91fqr9wlkDA2uadO1mOa6g3INs2i+G6Ps7Dq+bMd1tBvN55ftVTqNiaaG+QD2o5M5dhc87BVHQT0Oy0bMhG/ML9Qd4PlA1vk+n+d6j8IfJ1P8AO9R+E6jCBwUcDTZbnNvI3j8I/wAnU/zvUfhLsL7g+sZbA50wSAg948dSLfdE2ps6liUalWXMjCxF7Eaggg8CCAfITrhAxcH2Yw1MWQ1LdWX+2dfyRS5v6j8J3wgZybJpHN71gQN4/CT8j0ub+o/Cd1P5/wBYfdGgZdbZFEKTd92mo38OE81gctRlUMMpfJm4b7Xmr27qVFwlQ0yQdAxG9VZlVj+yza8J5Hs9QKoF+bwge/GxKPNz5rr9kPkOj+f+0v4TrwBPsqZbVsmp4nkT5S8wPDdrjSwxoqAe++QkkGxysRoAPon1mWHvOj4VxphP0w/gqTPwTd1fCBeYrSWimAhiNHaIYESIQgfRTIMDIgEiEIBL8Me8v1hKJKCBdtDbVOlv3cWNwovuA0JY6bgI+y9sU69wh7wFyCCDbnYjdMDH7HJcEg2+be+nhed2y9m5HRhvBv5cfsgejis1gSdwFz0jSqut1I6j7CCYHN8eJJCIzW32G7xJsAelyekueoCtzcag6gi1iCb33ecbDoFVV5AX6k6knqTc+cqr+zc9+mr5eJQMF8zAuonup9VfuEe8i8IHPisFTqZc6AlTdW3Fb77HyGnSPQw6J7oN+Z1MthAISIQKKTZUFwb3Jtxlilz80Acr6ysYxb5Rc2NiQO6PE8POXFxxP4wJhIVrqt99pMDnxGKCWFiWJsqgEk+QBPA+hO6FKux0ZGU9fxFx5Xv0liUwGdz72gHQcbeNh6CFVltZgCDpa183lxgFJwS4B1upI4gG9vuMeVUFQAqiBBe5AUKL89OO6WwFdFYFWAKkEEEXBB0II4iZ9DYeHQ3VGA4LmJUfzt5zSkEwJJ/5yiwhA8L8JtAsmHexyLWXMeC3VwL8tWA8xKtj7Fq1EDIndtbMSAp8L7563be28PhVD4hwqnQA2153zEC2olmzNrUsRTSrTdTTN8hutjbQ2sbQPEY/CvSbJUWx3jcQw6Eb5yEzt+EPbtNHw1JGDOXOexBsLG/ppfxEzKb3AMBzFMkxTAiEIsD6NIMDIgEISDAmX4X3l+sJzidGF95frCBpOoIswBHWCIBuAEmF4FOIxaU7Z2Vb7sxAvbfaNRrK6h1YFTuI3Gxsfunnu13/AGf1v6Zo9nf9vT/X/iaeWmebZ7YtcRD0WwxGGuTfMy6a2PohvZs6ZgQMpIzXNrC3mJbXcKpJIVRbebAC433nj9q/7pv0qf0Tq7TVmNVUv3VUMBwJN7n7LTD62YreZjtOobfSbmsRPeNtpdrYcBVNQAhV523Dja07qVRWAZWDKdQQbgzzlLYNOoqutY5yi30BVTlGhG/7Zt7Mwpp00pkglQQSNxuSf5z0Yb5ZmfXEa8aYZa44iPRM787VYnaNNXyF1XS5LEDS9uPW462PKdWGqq4zI6utyLjmN+6eE2rUL4l1QXUjJT6mmHZh6ZiPObHZHEG70vm5hUHkLN/RKU6qbZvRrjnU/ptfpfTh9e+eNx+3osTikpgGoyqCbDMQLzn+WMN+Xp/tCZPbM92l9ZvuEyqOxlbDHE+0IYBjlIGU5SQBzubfbJvnyRkmlYjiNrYulxzii95mNzrh6/C1FFPNmGXvEm4y2G8k+E5PlHB7/bJblnOXwte1um6YuwUd3xFO5FNqTBuSsbKD42Lekw1wYNf4vmNvbmjmsM1g5W9t19InPbVZiO/C2Po6Ta0WtPEb4+H0CvtGimXPVVcy5luwGZeBHSdNNwwDKbqQGUjcQdQZ4jtegSpRQblohRzNiRPVbKb/APCh+hT+ETal5taaz4YZcFaYqXie+/4attTDoxR61NWGjKzAEXF9R5ysbYwoGYVqQBJUHMNSACbftD1nk+12DCVBVDEtUuzDgMoVdPUes6cB2ZWrQov7VlLA1CMoNi4UWGu7uj1keu02msR2b/S4K4q5LWnU/h6Jds4bUnEU9bW7w1Go9L3gu2sL+XpftDgLmeE21gfYv7ENmyqveta+Ysd3nPR4PsiqsrtVLAAgrlADBlKkXv1kxe0zrS2Xpenx0i02nnmOGyu16DXCVFd/oqwJ1IA3dSB5iPicWlIKa1ZEJ3A2ANt4ud9rieEwtT4piGDqTkdVJ5rmU5v2e94gS7tDiTiMSKaG4BFJLbr3ux9fsUSfc4/J/wA+Pc1v7Nb295h66OodGVlN7MpupsbGx8ZZKcHhxTp06Y3Klv8AnWXTRzZ1vjs+X/DPTzDBg7jV/peeYwWFrIhFKo6A6lVPdPWx0v1nq/hf/wDD/Tf0VJnYFO6PCEPN09luXL1CzVDoWYkm3IX3DoJ6fCrZQJaaQkqtoAYrRjEMBYQhA+iyJJkQCKY0i0AEvwx7y+IlAnRh/eX6w++Bo5D9P90SMh+n+6IxkObAkbwCYHmO1JOamPeAV2J3ZbGmCCP119TNDs4WNBO8AoLqNLm4drynF4B6tKoVN6ntCFF/mqbFf1iM/Xu8hMPC4nEUc1NcyE3JUrfW28AjpObkt7HUTeYmYmPHPLoUj3cEUiYiYnyu2llOJYbz7VBfr3Rum/tbZYqd/N31UgXHdI5G3jMfYuy6j1FrVFYIrZ+9oztvGh1363nRtutWStmTN7MooOhKHU3vwEpijWK1slZ1M9tc6+U5Z3krXHbmI7+GbWp1KDAtdXyjvKxCtZfCx3Tdp7TJw7Vi3eXMpFvnXsvDqDMPFYjEYgqmUm24Klhci1yeHnL9pYWpTo06AVmLM1WplBIBuMq6DXef2ZGK16euaROtcbjyvelLzSLzG986+HHs2vRSotRg3dJKhe8WJUqbkkWFieGt5Vs7EinXRlJFPOV1GoVtNR0FvSbWyti0zTV6qHOxLallKi/dFgRyv5zP29ssIyeyRsjIQQoZ8p1BPHgR6GR7OWtK24451HflpXNhvktTnnjc9uGh2sIy0s3eGZrcOA5CZWF2Q9SmKihShvYZ2zaEg6ZbfbOza7VKlHDE03zAkMMpuCLC5042JnBQxmLSmKSU3C6gEU2zDMWJsbdZveInLMzEzGvgwzaMMVrMRMTzuWl2f2gQ5onKodiylVJN8ivqSNdDx5TMpZfjvX44db8faHW1pp7P2dURqmJIsVRhSW1yTkXUjytbrMAJiA/tvZv7TMavuNbNmzbrc+EtPqiK8dp/icUUmckxMRuNd/MtXtf/ANRe6XYUSwAOU2GYnhyBno8BmFGglrN7NF14d0E3HlMDtMrn2BCEu9NUqAKSSuV2dLDdc2v0DDjOT5Vx+lxUtpvojz+b/wAtN9xW0zMd3n9u2bFWsTERHzLq7ZAZqF9e6/S2q+N+HpN3Yf8At6FmIHsxpbdPH7VOKqlM9NzlpqVIQjVkUtuGveno+yjVfY5aisuQ5EBUqcoHXfJrO7zOluor6elpG43H5+WF2nIOJfNYgKg4g7r3Oh5z26A/T/dnie0WGqHEMUR2FkF1ViL5RpcC09shsN24S1O8s+rtE48ep8PNdr8Eq+zxBAZgQjXuBxKkgbxvHmInZWh7VnxL2uirRTQXLAAsxtxOnqZ3drFZ8PZVZm9quigsbWOthE7GUXSi4dGUmsSAwKkjKgvYyNfe09yPo+/3b1/j0LISb5/3YuQ/T/djQmrmPm3wuqAuDuxL/GOVlC5Kn23mfgPcXwnd8L//AIf6b+ipOHAe4vhA6jFMYxTAQxTGaK0BYQhA+iQhIMCYASJZRtcX3XAMCxKBO4H0llBO8PEffO6/LdwtKVxNMtYMpcGxseI4eMC4yIQgKKYBJBIJ323EgAX8bADyElVtc3JJ0v0kwgEWqe6fCNAwFqOBa54DxOkFf81gOoiLiKbNYFS1r9fGWO9gT0gTCS0WBTWxSIQGbU6AcT0HXpLKdQHXXz0nPgqds7n3y2UniospsOhJJ8xyEvqstrOdD1IP2awK8J7p+uf4Vl95XQRFUBPduTvJJJNySTqTfnHvArr0VfLe4KtmRh7ysARceRI6hiOMdkB3sbcRa14QgSTIhCBCH3/FfuiCpfcGPUDSRVrovvlbHnLFa4Ft3DhAAZMFa+boQB6ayIC1HCgsxAUbyZnYTb+EquadOujuL91XVjpv0BvPMfCjUq+xp00JFJ3CVLcQcxIPQ5VHmRxnkdnbOICsl1ZbMpGhUjcQeEDc+F064P8ASg/u1JxYD3F8JnbVo1arq9aozlfdvawvxsOPWauFWygdIF0UxjFMBDFaMYjQIhCED6JFMkxYBJBiwgZu1cZiEuqN3D9a4/ZImNsnAVGxFOq7uX9onHKoUMO6ANAttLT1FRA2+PgqIDr9YffA3TIkmI6kggaEggdNIHm9s9r6dBwgUux1FtSw3XA0st+JIvwBGs0tibZTEqSoKsPeU6EDn/8ACZ4jH7GdcVUZwcjBTTPDKFVco8CDp4T1HZ/Z2RxUG4KQ3W40Hrb0gejldcd1h0jxKvumBW+DpkAZQNzBlFmB+kGGt9/jc85FPDWIJqu9twbIB55VH8p0n+Q+6RADCEi8AyDfrfpICKDe1zzOtvCEmBRhR3T9Y+Vwp9Lky6U4X3T9c/wrLoHDtfalPDU2q1WAUDjx5DTXyAMwNlduKVVwjIyKTZWYWU+dzbztOf4SNn1KiUXUFqaVA1QD5oysAxHIE/vTH2VsoOAoFydABxgfTZEimhVUUm5VFUnmQLEyYFa0VJdmVSbgC4BtoN15UmBVdEqOqcEXIVX6uZSVHS9hwAnSnz/rD7hCAAAAKNw9T1MIQgc+MwdOqjU6qBkIsQf5cjoDfmBOTAbBw1IhlDMRqoYgqvLcBfzvNKEDw3wk4zI2EuBZqhQmwuLq53/qiYtHdpOn4XT/ALP9N/RUnDgW7i+EDqimTFMBTEaO0QwIhCRA+hmRJMgwIhAyDALx6T5SDyIPpKzFMDhxHbPIxU0HuCQdF/vlJ7dD8g/ov98nGbPVmLW1O+ch2WvKBz4jtDUxFemAhWkCSc2hBygWABPEE3noH2ycPTv7MuM1zbeLgDdccpkU9mqpBA3TRqUwylTugcp7dj8g/ov98Vu3anQ0Ht4Lf+Ocz7LXlK/kteUDVft3SvpSe3C4F/Oxkr24Q/8Aaf0/zMg7LXlJTZqwPR7O7TU6rpTyMpY5QSNLyO1failgVRqis2Y206mwA5k6+QMTs/stM5qH5lio5sdx8rR+2OxqOIw7+1HeUBqbXtkcHuHqLtYjkTAxafwjUmFxQqen+ZZ/qFT/ACD+n+Z5jZmz0dEYbioM7xspeUDTHb+mvdTD1SL3JIXU2G7v9If6hj/139F/vmaNlrA7MXlAv2n26apSqU0oMruhQFgANQRrZzz5S/s9jjTCVcuZlBuN17qQbesz/kxeU7cLSyCw3QOmr8IAUkHDvcHkP75X/qIv/rv6L/fOLF7OVjmtrOU7MXlA3KXwhUsrXo1A5YHcMtgOFmOskfCDS/JP6TAOzF5Q+TVgelp9u6ROtNwPq/5npEx6mgMTY5DT9oPpEWva3PhPCbM2QruibgzBSeIHHztPoL4VMgoBbUgmQDoNIHgk+FGgxIWi5sxFwNDY8CbXln+pNL8g/p/meU2nsOlQxVahT/6YOdFOpQMTdb8QCDbpaWLs1YB2y2+mP+LinTdGSpmOYaEZXG+++7CduBWyjwnINnATQopYWgWRTGMUwFMQxzKzAiEIQPoUiSZEAimSZECJBkxTAUxSsYyDAQrIjGQYFZEUrHkQFKyMsYyIFlHGtSDMouLd4c7cus832q7U1a1NqFCmVZt7NuU8DvN7HW3MDXhN4zLxOzlJvaBn9mMMUo00JvlUKPLSbmWU4ajlFhOkwEyxSssimBWVkWjmKYCmKVjxDAQrIKxzFMCablCGU2YHMp5Ebpdju3DUwQaDGpbS1ihPP3hp/wA1nKZyYvDK41EDzGCqVquIqYiqe+53DcouTa/E3JPnPTKk5aWDCmdiiApSRaOYpgIYrRzK2gQZWY7RDAiEIQPoMIQgQYsIQIimEIESDCEBYphCApkGEIEGLCECIhhCAtoGEIERTIhAgxTCEBTFhCBBimEICGKYQgIwiGEICmQYQgIYjQhARohhCAsIQgf/2Q==;" vertex="1" parent="1">
          <mxGeometry x="-201" y="149" width="125" height="70" as="geometry" />
        </mxCell>
        <mxCell id="uePYLTky3xgfzCpiDaqf-13" style="edgeStyle=none;curved=1;rounded=0;orthogonalLoop=1;jettySize=auto;html=1;exitX=0;exitY=0.5;exitDx=0;exitDy=0;entryX=1;entryY=0.5;entryDx=0;entryDy=0;fontSize=12;startSize=8;endSize=8;endArrow=none;endFill=0;" edge="1" parent="1" target="uePYLTky3xgfzCpiDaqf-14">
          <mxGeometry relative="1" as="geometry">
            <mxPoint x="-42.99999999999977" y="297" as="sourcePoint" />
          </mxGeometry>
        </mxCell>
        <mxCell id="uePYLTky3xgfzCpiDaqf-14" value="Мультиметр" style="rounded=0;whiteSpace=wrap;html=1;fontSize=16;" vertex="1" parent="1">
          <mxGeometry x="-181" y="286" width="89" height="22" as="geometry" />
        </mxCell>
        <mxCell id="uePYLTky3xgfzCpiDaqf-15" value="" style="shape=image;verticalLabelPosition=bottom;labelBackgroundColor=default;verticalAlign=top;aspect=fixed;imageAspect=0;image=data:image/jpeg,/9j/4AAQSkZJRgABAQAAAQABAAD/2wCEAAoGBxQTExYTFBMYGBYZGyEZGhkZGRoaGRogHxoZHBohGRkaICsiGhwoHRgZIzQjKCwuMTExGSE3PDcwOyswMS4BCwsLDw4PHBERHDAoICEwMDAwMDAwMDAwMjAwMDAwMDAwMDAwMDAwMDAwMDAwMDAwMDAwMDAwMDAwMDAwMDAwMP/AABEIASwAqAMBIgACEQEDEQH/xAAcAAABBAMBAAAAAAAAAAAAAAAFAAIDBAEGBwj/xABVEAACAQIDAwUJCQwIBQQDAAABAgMAEQQSIQUTMQYiQVFhBxQycYGRodHwI0JTc5KxsrPBFiU0NVJUYnJ0k9LhFSQzRGOCouKDlKPC8UNkw8RVpNP/xAAZAQEBAQEBAQAAAAAAAAAAAAAAAQIDBAX/xAAqEQEBAAIBAwQABAcAAAAAAAAAAQIRMRIhQQMyUWEEQnGxExQigZHB8P/aAAwDAQACEQMRAD8A7LQDH8sIIzlUPJ2oBl+USL+Smcvtrrh8Pzr885bDi36I7SSPJeuT7a27MjW3qRt0oi5svYxPT7WqybHVF5cwn/0ZfMv8VZ+7WP4GX/T/ABVxV+VGJHDEH5C/aKjPKvF/Dn5KD7K10jtw5aJ8BJ/p9dZHLJPgZP8AT664d91WL/OG+SvqrH3UYz84bzL6qmh3L7sk+Ak/0+usHlpH8C/nX11w08qcX+cN5l9VL7qcX8O3yV9VNDuH3ap8C/nX10vu3X4F/lLXDzyoxXw7eZPVWPumxXw7eZP4aaHbzy3X4FvlCsnlsvwLfKHqrhx5S4r4dvkr/DWDylxXw7eZfVTSu4/dsPgG+WPVWDy3HwDfLHqrhp5SYr4d/R6qz90OK+Hf0eqmkdxHLU/m5/eD+GkeWjfmx/ef7a4d/T+K/OJPPWP6axP5xJ5zTQ7ieWrfm3/U/wBlRty5Yf3b/q/7K4qNrYg8cRJ8o05dpT9M8vnq9I7KeX5/Nv8Aq/7KJbG5XRTEK6mNjwubqewNpr4wK4V3/Kf/AF5fPVjBY+dWBTEHN0LJqrdhPRTpHo6lWucgNvd94UMwyyxsYpVPFWW3zqVPlpVgar3b8SyNg7HplbyqIwp8mY1yPGy2t0k63NdX7vg0wh7ZR5xH6q5Hjm1Xxfb21ucCPft2eYeusGduv0D101SOv6NWHhAJH2VRDv26/QKXfD9foFTd7fo+il3r+ifNQQ98P1+gUt+/X6BU3ev6J+TWO9v0D8n+VBFvm6/QKW/br9FTd6/oH5NLvT9A/J/lQV9+3X6KW+br9FWO9D8Gfk/yrIwh+Db5B9VBX379fopb9+v0VP3ofg2+R/Knd5H4NvkH1UFbfv1+il3y/wCUfNVrvJvg2+QfVWO8m+Db5J9VBW75f8o+and9v+V6Dp6Ksd5Nx3bfJPqqEgDooEMS5996DU+FxDE2Jv5/VVYj2s3rqbB+GL9R6D1dpojrvcPmLPjATpaFvKRKpPjIRfNSqHuDn3TG/qwf/YrNYvKpe72Pc8Kf03H+lfVXH8YdR4uuuxd3we4YY/4rD/QfVXHcT0eL26K1OBDft9I9VHNkKDPqOigV+30/yo5sT+38lMuKQbx8biWERqGurXUmwNh126KHxSSRRJiGuwzSI68bc9gpHXYgDy1t2C4CrNcZl9LoK2TszLEok5zkXJI6TrbycKt94p1CrQpVnatP5eYowLGq6Z75iONh1eWgsuwsWsZmMo3YGa+Y3t+rbj2UZ7oOzJppIRGhYG63HAE249QtfWjW3sG7YN4kF2yWA67VudpEDeQeIM8ThxfI2UE+ERYHXz0/l1iu94VyAAu2Unpta5seg1L3P9nPDhzvFKl3zWPECygXHQdL27ag7oez5ZliESFrNrbovoL9Q7afmPDXk5P4pohMJRuyucEuwa1r6i3Gjfc+xJmEiNzlTLlY+Eb5r38w07aNyYB1wW5UXcRZQOi4UDjQ7ud7LkhikMiFS7aA8bAW16tb0t3KJuWuIOHw+ZAAxYL5Om1arheTmJmiE6TDdsC3Odwwte9wFPSDW090DASzQosSliHuQLX6untq9s7Z7x4NYdM4jy6cLkHp8ZpLqDVORWKZ99ETmRVzAtqbkkeQacKFbQSznx0f5E7GlhSd5Vy5gFAPE5c1z4tRbxUD2r4ZrU9x4UmXU6eg+upcKOcPEegionXXh6B66mwY5/DoPQBXRl1fuCf2mN/Vg/8AsUqXcDHPxv6sH/z0qxeVW+77+DYY/wCOR/0pPVXHcQbZfEeBI8fCuz93pf6phz1YgfVTVxfGjwPEevs6q1OBCT7Xb1Uc2MPdx4vsoDb251HtkS+7gm3Cl4I3nBLzRVnLVPB41LeEPPU/fyflDz159NpctK1Rd/R/lDz0u/4/yh56qNM5Y7SlXGQxo5UAroOF2axuOnSjXLnGPHhSUYqzELccbE6+ig3K7Au2IE8Qzmy2AtzStyCbnXot6aH4mXGYgCOZSUv+iLdvHorcnCNt5CyO+EjZ2LHnAE8bB2A18lBO6LtCVJYkjdl0zaG3OuLX6/FWxbAKYeCOIupKjUg6E8Ta/aTQDlrgjLKs8VnIFstwLW1BNyLjsqTXUDfKzFPHhHZWIYgC4461X7nsjthbuxbnta5uQL8Lnj01rGJmx0y7uVSyHiLxjxEG/EVuHJlEw+HWIyAkEkkacWJ+2lmoAndNxrpukV2UG7Gxtw4cKN7ZxTx4FnzHOIhzum5AF6Ect8DvykkZDlQVyXAvcjW5I07Omg8vf8i7uTnIdCpeMAjyHSrJuQF+QMjthpczMwEhAub25qk6ntNa9tYe6Gtv2HDHhsMYzICSSx8vR4wAK0/aLh3JHCrj7i8KUi6nT6PrqTBDn8Og9XZ1VFIdT/t+2psCef5D+T2dVdGXWu4KNcZ4odfJLSp3cGGuM/4PzS1mudVf7ui3wUJ6sQv1UtcV2iPA8R+yu293If1GPsnT6Eg+2uJbQXRT4/src4FX24N66uYmXK3kFUiPa386RJ7PNVF1NosOBPnp39Kv1mh5J9gaV/axqahtf/pV+s0v6Vf8o0PJ9tax7dNNQ2IHaj/lGsDaT/lN56oe3TS9uLU1ARG05Os1KuJlb3xHltQoHqJ/1Vm56z52pqArvZPy289O38n5Z89Br+1z6qz7cT6qvb4BgzSfCH5VLeP8IflUH9uJ9VLzec+qp2+DYyWY6FyfLVaWIKLg+mqHlHn/AJUvKPP/ACq9g+RtTr09YqbAG7+Q9XZ1VXAPt/4q1gEIYk3tb1dlB13uDjTGfrR/RelTu4QObi/1o/ovSrneQT7t4+947Jk+Zx9tcPaQAWPA9Fdx7t/4u/40fzmuLbK2b3xiYIM2USMFLdIXUuR2hQxHbW8eBSaaMccvmpm/i/R8wotJyrlUkYZY4IfeIsUbNboMkjqzSPbiSePC1YPLHG/D/wDSh/8A51dgTv4v0fMKXfEX6PmFFRyyxw/vLfIi/gpDlnjuPfL36wsY/wCzxU2gV3xH+j6KXfEf6Pooq3LPHHjin80f8NZ+7bHj+9yf6P4abAw4lCegnyXpzOgAPN1vppcW6x0UX2dyxnMqLiZt7AzBZY5ArKyEjP0XVgLkEWsQKqbS2a8E7YeMEvvniFvDch8iAHtBU9uapbrh0wx3vfEUt+nUKz3wnUKKfc7j9BkPOYKt5ogHJAPMJks4sQSVuBrfgbDmDh2ikYNYNezrIoshYFXQlT0cD2Vm5ZSbsWY4WyS3v9GCder0CpVN+EbHxLRTFbRfARQxYdt3LJEss0q6S+6c6ONX4oqx5CQCLlzQ8cq8YT+HYnyYiX7Hre3Iy/8Aht8mnZW+Cf5Bredkw4h8JFiHxeKkkVJJpIlxcuaRSshgXKrlkB3N721D6G40q7exM0eGfELiMZCebDunxUrMkzOspJIfUd7tYA9l9b0Gprh3Oogc+KMn5qcIJOHe8p7N21/mqH7ocX+d4n9/L/FSPKDFHji8R+/l/ip1CwcPL+by/um9VRR4gNpYg8LHrHZ7cKvbKnxUq76bHYiLDKbNKZZCWP5ESZvdJOwaDixHTU2ntPvnFS4jLlEjXCk3IAXKMx6WIFyekk02rqvcJ8HF/rx/Ras1nuEj3PFfGJ9A0q53kEu7aPva3xsf0q5HyL/GGF/Wb6uSuu92z8WP8ZF9YK4/yPa2PwvxlvOGH21vEofyPwaTYnDxSLmR2ylbsM3NNhdSGGtuBrbJ9gQxRRTf0eXLKZMRGZJU71yRLIBmZroH5ze6EkgZQQSK0KByoUgkEAWINiPERwp5nbnc9ud4XOPOtwzfleWkoM8tNmRYaZYI7EhWdnBJzB5HaHidLQ7o/wCY3oETWWYnib+Ps0Hoo9yM2tFhmmeZjZo8oiCZ1lvcFZOpcpNhwzFSb5bENfDDrra+Q+2cNArLiAgJkV1cxbwgBXEgOh0I5oFuMhPWQU5YbVTEYJpI45WQzIN60WVGdUUFy1zZrAx+Tj0VoyYckm1iAbZuC+c/Nx7KvCOgbf2jhWwDOsRVJYxHExgIVipkyRCS1g0R1LXs2U2LWoJygxzJNBjFsXZIMTqObmyBJAesbyE3/WodLiJmgTDSTOYY2LJGbBVY3uRcZ/fNxA8I2pskpZEjJuqAqotwBdpCLnjz2Zteuplja3hlMd/crY8HylAwO8jljgOHmURYMMzNKpyG5dmzGzs73tplI00rVMEJJ3YM7PJKVjzMSzM0jqtyTqTYGnCFeofJX1VNhJDE6vHo6MHUhQbMpupsNCRx4Uyx2uGXTd/qPJiZWxu0cRh1cpDFKl0AIAVN1FmHSoEee3+H1VJyr5U4abDyxxsxdraZGVDaSJkIzsxTdxxulr2JlYroTWu4bESxCVIpXj3oyygHwxro4Nj749JOp6zQyXDsvEadY+3pHlquaSHHyqbrLIpsoBV2BsvgAEHgvQOjoqOTEu18zs1znN2Jux0LG51Y8M3GjXI3Z0mfvu0i4eAkyyRFc6Ao3ggkNcg2zLqobMLECtkxXLPDyxvEoleSVJEVUiyqzPFuhGqhywR5PdrC9jYWLa1NDnpNHMHsqOFFnxYazC8WHU5ZJupnPGKL9Lwm96OmrEGETBsFKrNjeIj0aLD26ZT4Mkg/J8BOLEkWqIYLETLJiYwZnLNvJs6lyVCl91Gzbx7K6XcLoDpYUS5eIr7Wx7SMGxFiyjLHCnMihX8nKvg/qg5uljeod2qupUWDIHy3Jte4IBOpFwePXUuK5MYqPOWh0RDK7K8bqqq2R7srEZlfQrfMLHS2tMfjF8Uv0pKeWe8s7uvdwke5Yr41foUqx3Cf7LFfGr9WKVYvLoJ92sfeuT4yL6xa4/yPW+0MIOuUD012Lu0j71y/rxfWpXHeRzW2jgz/AIy/OBW8Stbi8EeIfNSJpR+CPEPmrJFQEcbyfxMKNJLC6KtrsQLDMbDp6yAeokA2OlDa3CPlThpimHngaLDEBCySGRo0vE7BRu7tmfDxXOp1kOpbQFPh4hNIYSzQhjui45xUHRmHX1AjU8QLEVdCfD4mbvcYd5W3Gbebr3oJ1Ba3O7QgOt783iWvNbwdLDjoCOsC2ijsW3beopH09vYk9dV2ct6qokaYdGtRmVj2UlSsnQUEM07j3xo7yZBEZkYm7NodL5V0HRpzs3yR1Ctek14C9brgsNkRIx70ZdOsasfKQx9jTHkOkKSZgyg5SRzhppxynrv0jWgGLssjqvBTYa6jsvx6bfPWwTMFVmccBmPkHX08PmrSpJGzF76k3PjJuatoIkPlaOKVkSS2dM7LG2um8VdDbxW7BoDfTEJhw8eFfngZZsaQRa+hTDDwlB4ZvDf9FaF4bEZuw+3orOKTMFbUqp1S54aXtfQEjp7NeAvKl34S4TZs86MMNC5iBCuRlux0tnN7BRcGw5q3BJ1vRjZeIl2fGjSYSXfI8zxMSBEBLFFG+8ABa6rEWAuNGB4a0peVGDhMq4TBOsUihHDysGKlCkie/srBr3DeEFJBygVal7oavDOkmFDPMSWtIyprCYi3XfJkGUac0m4JpNJJrhWw3K/Dw7wQYRsszHfb2TMzowlzIlgAv9qQDbXKL3J0AsNYviV+d6H2ojJ4UXxK/O1RL7o693B/7HFfGr9WtKs9wb+wxXx4+qjpVi8ti3dnH3qm/Xi+ujrjXJH8YYL45PprXZu7L+Kp/wBeL6+KuM8lDbH4L45PprW8UqPZ/I6eaJZYjGykNYbw5gyhTuzzbCQqwIF7DUMVOlY2xyRxGHiaWRoyisF5jMSQcozC6jmhnVNbG/RbWjHI3bUksqYZpUijWNo1dUQMMzrY3fTNdmbNx1brqHbnKEtiTBiH3uE3iO4jVFcoUjfKrJa2uUkAi7KTpV7aXy1KJLm3n8XTV/h7cNOHiA0p2OMBnlbDKywFvc1c3YKLcTc9Oo1JtxqHENYW66QRu+Y9nRT41qOMVYUUCIqvM1WHNU52oHYEneKeo5vMbi/lArYcNtawyke3saCbOhuCdOrUgcOPt2VPYg61YCG3NoBo7L74gHxDU+m1AgKlxcl28VRoKlDSLG4q5FNex84qBlpuGaxK0EeIjs3Z7e3iIrcOT/IiLEQxOZpUeS11yLpcMQ41vuzu5FF7EkA8CL6vIwBViuYKwJU8GAIuCRwuNPJRDlHylbESloA+HhyqqwpK+RQLcFFlW5VTYADmg8daA/N3NyyoYJmuy5yJVscrMoUDJ75Q3O6L8LVrEwIaMEEERLcEWIPO0I6+NNw23sVGGCYiVc3hESNm8LMbNfMpLAEkEXtresztd4yTf3JLm9+g1PLF90df7g/4PiT/AIw+qjpUu4L+DYn4/wD+KKlWLy2Md2EferEeOL66OuJbBa2NwZHw8X1sddw7ro+9WI/4f10dcM2D+GYP4+L66Ot4JQ7EYJwWG7ewzG+VstlbKzXtbKDoTwFQyxMhKspVhxVgVI6dQdRob+Wun8ntqvIskUEUkrRFlYSSRIGkcsqKpZ7mIrHbKFFt3fUsa1faW0MFjJMTPNJNEwiUQLlDtI4DXEpCkAXyjiunTpaml2AYYae3Wf5U3EHnU/DcKjn8I+3RVD46lFRrTr0DXaqTm5qxM1R4VbsOzWguwjKANOqpUlte/AD28VMqLEPpbr9vVQQE9NPQUwVItA8VXOjipxVeU84UosTDQ+3Z9tU6uynQ+3SKNcmtpYKJYC6SR4hJGaSYc9CmVwqKlzYm6rmCXXVgb0o1kGiM3hR/FJ81ba/KbZzlN9Cstso/sbLGu7AdYxe9t4mfxSkdBrVcQBvEtw3SW82lTyxfdHXu4N+C4n9o/wDhhpVnuDfguJ/aD9VDWaxeWxvusD71YnxJ9bHXnt5mR43U2ZWzKeoqVKnyECvQvdVH3rxX6q/WJXnfFDwR4/srWPA2XZ+3Yy7zRYbFRu7h5Bh5UKZxmN1EkDsmrucuY2vVJcHhwfwLGkdsyA+YYeikvIwzIZBiVWJASE3bnIqFg9gSMxGRud79g1tBc19r8gDh1R5J493vUikbIQI89jcanPZTfo4Hh067sS2zfyByqA7BUeNb3CObuB+kcq38wqviF1v7dX2VZ2phYoMQ8UEwmiUgLKosGuAT2aEkXGmlRyrceL2P2HyUbMSstUaGsymghlapsGul+uqramiCCwtSBxaqs7XPiqwxsL1VFKHLUgFMSpBQI1XXVx7cNallewrGFTi3k9dA+c6Ht0qtU8pGZQx0uM1rEgG17dtvTW4YbkrgsQXfDvijCGyqSqjeFYt4ypdb5rjViLDMoAa+gaRRGTwo/iU+iK2qTubKxAjxBWzBLvHmEhMYkDR5SLR2zLrfVDr1arMLOg6okH+kVNd2L7o7H3B/wTEftB+qhpVnuED+qT/tDfVRVisXlsd7qY+9eJ/VX6xK864r3vl/7a9F91AfezFfqD6a150xnR5fsrU4GzzTbSOd4pWEYZzGoeNXdIXNykfhSKljfQ8CNdaAYzb2JlQpJPI6EAFWa4IBzLfrsRe/GtjHK6GJWibCl5o++Ikl3lsoldybLl6AxHHpNrXoJsTkvLiUzxPFbNkYM5BS4YqXAU5VYowHTwNra1WcOAhTY1cgkuKKTckZYAs2ItuA0e+3bXkjVyQwIYAZxa1hfVha+th213gXESd7FzBf3MyeFawvfp8K9r62terOzRjYck80EnoA49o7SPSKqyPVyOS49h/4PbVPHqQb8QT4XT/mHX29NKFgxdr9Wvqq1UOESy366mvSCKdtLVGKUra1gNUEi05npim/D+XnPCnxxX19PR5B74+iqGrHm4/+B1nt6qlcgDxU5iAOzt4+XrNVpm11B8XA+e2njoLESIw1Uk8c0bc7yxvx/wAtuFPigfwYZs2t8gYxvf8AUYi5/VJozjNgx4q+IwUYigCkCOSQtIXjCluBbKWzjKCR4JOgIuH23gJcNLuJwrHKrdejC+jaHQ3U9qmsWZRenG8Wy/5im0jqQCWBA0BJFhraw6BqfOeurkvhJ8VH9BaijxhtlD6fkyBZEHizA5fMKbE7NIxcnN0+gdGlWXdZuGUst1r6dt7hI/qU37Q31UNKndwr8Cm/aG+qhpVm8qOd038WYr4v7RXnHGfaa9H90r8V4z4pq884TCb+aKG+XeSrHfqzsFvbsvet48BuKiWR2kWRAGJbK7ZWBOpBuLHU8QaJ7J21Ph41jilwwCszjMFZiWFmzGxzCwX5K9VQYzbccbOsODw27QlV3sZkcgE6u7Nqx46AAcAK2CBFTHw4WXDYRkkXMSuFVDrG7DLcm4uo16daSfDHTZNbBcbtzFSxGFp4nVlVGW8YLZDdWJYC731zXuaAzwshsylT1EW83WO2tkwMsM+Fmnnwsdoyi2w6tE/P0zFw5jAHU0ZubC4qlisGI4hLC+/wpbKQwyvEx4LIovu3twdTla3kpdp3n2o4bATGJ8QsTGGMhXkA5qk2sCf8w8Vx1iopJcwo7yewrybzDb2bvaSNpmEdrcwprKtjcrYAqoJZt2BoQRZ5U8jEw+H74R5ObI0bJIFJsHyK/NAyo1swOukkY1vmNall7gCWsLU1jYGnLsjEDD99CM7jPu95dbZuq183HS9rXqpvj4/LTbSPduege3lqRMK3SwHi1py4js9NTIWIDACxJXpvcKG4W6iKnaE72T5KOEDjc+Ph5uFOebyn281TbK2ViMVvNxGX3a53sVUBdesi50OgN9DpVFDmUjq5w/7vRY+Q0t01jj1XS5h9l4iaOWaONmiiF5GFgqDXrIJ0F9L2qojBhlY2/JY9HYf0fmo9yJ2cuIMkT4h4lZ4wVVrJItpXdZBmF+bHodbFhprpLt7ZGGGE74wysQZMue8pUAHL77QG/XrrppUs2mN6aD7P23icOCkUhQXJIyo2rBAx56nW0aa9FtOJvBtDaUs7BppC7AEAta9izORcDUZnY68L2FhYVExugJ4g2B7LXtUVJdrnJL2Kro/tD4h9Fao1dU+6HxD5lqfmjU9l/Wfs7d3C/wABl/aH+ripVnuGD+oSfHv9COlUvLmO90ofevGfEv8ANXAdgaYzCn/3EX1qV6A7ow+9mM+If6Jrz9sH8Lwv7RF9albwSptucm3ixEceYNvlEosLEBmbQ36Rbjw6baVeh2bDE6RiMsWvZ7lVuouQCvO6+JN+zhVHZB/rk/5V5cvjzsBbyXozsVlVSFDopNlEjatp7xSbgaXt5a+v+A9D08sOqzdt8+NPJ6/qZS6gXLseOZM8SFDdgtyCGykg5TxF7HwuNujjWOScARcRPI/uMYSKaK2kscr5Ws1xlZNHU2vdRwopiCrSo+V26FdWzIGBINwDobXBJB6q1PasJeSdkRiqs2ZgpIS5IGYjRQToL8a5/j/RwxkzxnnXbz9t+hncrZVvEYZ8O+Jw2chomYhgSubKbMdPevHZrforS5K4EYjECKRZHTKSwRjmCqBcgZWLWUaIBckIOFT8q58mPd7X5sRI6w2HjzDyhj56Fvs1m8Bc6dDCx07R71usGvmcV23Mbd+W/R8kMPuxGZpgh3bFN6AmYyZFfJa15QLKegjp4Vom3sKsOImjS5VGIFyCR1qSOJU3U9q1F/RUvwTeb7KX9GS8N2fRS2HXj8xtezNhTx4WePJhJFmQOJWLlo0RgJHQ7u5VSym443DLnBrXpMO0O9ie2aKZc1jcG2dGseo83WiTbe2hr4IzWDARRC4AUWIC6qVRAR0hFHAUOnEp38k/GQEljluzl1fQDtB0AsB1AVMtWaS5ztZZvcEOROzIpsSYJcS0KsGQhS6tIuRyRnAKKq5QxD6Htp/K/YuFwrRbjFb1iiNlyNzw2a7hxzQpsOZxseNa9JlbUta9rggnW3Z56wI1/LHyW9VSZTWrHpuFmW5Z9d2J4wDbiDqPEeHt2VHYcba1JKw0A4AWv16k/bUdMeGctdV0mSZVXnAkBr2BtfS1r9H/AJpmKmJsWZU6QkaDmjoub8fGSeuopjp5b+3t00/HQC4dTzWtxvxtrY6311txHVwveGbdpD0B7WYXSQCx7Mw6R6R16EVZX+0PiHzLVXHrZUj6RoL6Ei7Ncr725c2B1tr01eY6jry/aKa77WX+mz7jtvcO/AH+Pf6MdKs9w8fe9vjpPmSlWayOd0T8WY34iT6Brz5sQ/1rC/tEX1q16G7oP4txv7PL9W1eddkm2Kw5/wAeL6xa1ilWeUm23kxGYDKYWMa85mvlOW4DGyAhRzVsLlj06EMHtaOZ42KvvhmVURGcEtpdVUXLEDoPSdOJrXNtEDEz3+Gk+sajmypYG2tCcMCsJmTdg3uBoPfa8b8a9Xofic/S9urL4v7sZ+njlyhxO30SMx4dSMxLZ26Mxucg6B7a0Kw+03jhlhAUrJYtcEsCAwupvoSGYG4PZY607Yk+HVJhOpLNCRERrlk0sSLjo+2qOYcL1z9X18/Us6vHEnEMMMceBnlmb4t/i4D/APrw0/CcmM2GOLnmjhjOYRBwWkmZb3CINQtxbMeHVaouVx/rF+uGA+fCw0XxQjx2Cw4TERxz4SNkeKVsm8Qc4NEeDNZdV6/EL8/NbCeT/JrfpJNJLHBBHYPLILjMdQqINXa1jYdYoTLGoZgpzAEgNa2YA6Gx1FxrY8L1vPIXlABg5cGs0MMxkMkbzqN04ZQrKzHwH00PUQOutHljyEpcHKStwbg2Nrg9I00NShlhRSPkxiyAwwk9m1B3Ti4PA8OFCmOlb3tPZuAlxeLOJmyPv5QbuBZRuyhUZSWNyy5enU6ZaK148kMd+ay+YeulgeTjMHMjiMxyFJEKlpECwyzMxUcRlhYAX1IPC1yRwfJ7Zjl8+NCDeHJqgG74pfMtw9jY36fFQ/GYlcJMUwkwliuj5iqsGISRCpW1stpZEI98DfpFmkE8RyGMKb6eZhEN6WMcV2AjbKhAZwDnsxtcWC9N6o7c5Ophvc3xF5vCUbsiMxmV4gS4JKNzM5BFgDa5NM+7LF5pGaRX3gCurxxvGQoIHubLlHhHgNb1WxnKHESxtHJJmDHMxKJnbnmTKXC5sm8JcJewJ4U7Hc7bOLiCrhoOdDG2ZpCLNNJaxc9KoBdUToGp1JsJVCPBcqD0a0+NLm2njJsB1knqpSFb2TM4HFgth5ATfz28QopJGqm9yx6z9gq1C97eX7KrCxBsTccVYWI7RrqPT2dNS4X1/ZSDvXcQH3u/40nzilWe4l+LR8bJ9KlWKDvL78W439ml+qavOOBkCzwsxACyxsSdAAHBJPUABXo/l2L7Oxv7NN9U9eZsRw8v2GtYjoOznEHfAkwM7zh8RkZIHN87KVGfIRrlUq1jYZuvV8JafE4JlwEsLLOjSHcOkdt2gPOKiwDZl16EU9Naxyf2Q82HMz7QGGjWTdKJGkyk5A4AytZRYnzGruB5KSyTSYWfaG7mVrKh3sgkXd7zOhzAZStzr1GtIn5GvicLDu22diXLS52vh5CoURqBpl5xzL08ASadyxWfERQwYfZuKWNFQnNBLmVlEi5QAtrZXF24sVXqqjgeSSzM2TaMZizpFHLlkAkmkBIjC3uug1Y9dV8JyNkkhLtOizHfGOEhmaQQm0vug5qm4IAPG3mvgUOVumIKm10igjaxBsyYeJHFxpcOrKe0GhJrYpuSJXCicTIZBHHO0ARsyRSNlR897MdQSttAePC8+3+RscCYgxYxZpMOV3sW6eMqHYKCGLENqRe1Z1TbVqVKsVFJhpV7b2O3+JmnylN47PlJuVueBPTVfCodWAJy8LC+vR5uPkqTGRHVspFjY3vw96b9OmnkHXWOqb07T0bcOr/tMbPwEk7FI1BIUsbsqKqi12Z3IVVFxqT0ijnJ/kl3wbPMqBZDFKwKOqZlQQkMpyuHlcqbH3uhoRsqZwJlW1pIjG5IJsudH5tiOdeMdel9Kjwe0JYb7qRkuyMcptcxtmjJ7VbUVuZTenO4ZSTLxeP7Nll5DlwDE7RHO8ZXFDKzFZI40ZDGh5rvMq6jQhucQL1U2tyOkgwwnZwxMgXm33ZjdeY4ZgCLvdSCNLrUEu2cZJYti5GykMLsdDmSUG3Rz1VvGtVsVPO4OeZmBRYyNTzFZSq2HEBtfGpNZ/iY/Lp/L+rrelHaOFMZ3ZeNibaxyJIvizoSL6cKi2gHXKCTktzLeD0Zv8wOh6fRSK3FuusyYhiArAnLwKki/Vfo8vGtOJTMVVCb51434jUkA+QLoes9dWYBZvP84qqSWIJAVRwUfbfW/aas4f29Hrqwd67iQ+9q/Gy/TrNY7iX4sX42X6w1msUbByyF8Bix/wC3l+ravMc/Dyj5jXqDlaL4LFD/AAJfq2ry9Pw8o+Y1qDYdl7NmxGy3SGJ5WGNViqKWIHe7C5twFyBc6a0ciGXbOEhLBniw6wyEa89cLLm1/wAwrXuSWAllRt3jXw+aVIlRTIFlkdXKBjGwC3CEZiD0VLg+Sb2WXvndu6q8RVJCzM8EczhmQ3jUCVEL63LcBWkF+5i8iYYNBCJnbGRLIjAsIo8n9qqg8xrlhvOjL2VPyc2O0U07qEkwk5xMck+u8gSIyrcy35pfmN05hbqoGnJwRB1jxzrNmii3aRuodp4zJGpdZPBIDA6EC3DWqW39iSYRZFE5aPfCOy5lSUGJZUkIzEEFWFhrbrq7G0YyFt3NjiLQSbNihQ+93rNCu7XrytG1x0UU5aRzGPaQnw0UWHKq0cygJJNIrIY1chryAnNxAtbzcoMzZQmZsoNwtzlB6SF4A6nXtrM2Id7Z3ZrcMzFreK50qdSaR0qVKstMPwPionypwyxYvERouVElZVUcAAdAKFvwNGeWv4fivjn+eqB8EhCMFvfp6gPX9lYwKqZEzqSgYFwL3yAgvqASLKDr0VLGCo0y6i+pHG4sPNfzmrOxtpnCT71VzcwgDPltmHSQCGtbgdLgHoFcsbOqvT6uNmGO/H+2zpDshMm9LKCNc3fQJYAA3Fh05gwHD3K3FqqPJspRY81rZiJO+M4ZijIpy6bpQ8iP74hQVuTerj8sMVKEUbPZ1YFlGWR95GLBspKG68MzDspn3fYgEvJgkNgCxyuo5992xupy5kIUflAaV17PN1ZNN2gY945jI3eY5SuYLbsD84Dqza9dRyxMhGZSp4i+h7DY61a2ptRpZnxARUdyCFXwVNgLqDwta46tOqqGJspsVLN4RZidcwDXA6iDe5ve9BI0ZFrgi/DqPiPTViDgPGf+2q8cgABFwjGzKdbHhmB6+3joRwNW7WNgbgfy9VIO8dxH8Vp8ZL9Y1Ks9xL8Vx/GS/WvSrA2XlN+CYn4mT6DV5cm8HzfMa9S8ohfC4gf4Un0Gry1JqunYfRWoD3JHFTxxOYsMk2WaEo7ORupiJEiOQEZ7lzodL2vRbZ20sdFIsAw8ZkSOPd3kYZMrR4HMSrAOGkjjujac0HhQnkbypjwcU6OjOZGRksBYNGshQm54iQxHxBvLefljht7v93NvM+S1kyboY4YsHwr7ywCW4X6a1P1QzZk2JdnxCDDAiWEZXlAYSxRSwxAJfMS2ZnHWY9NBVrHrjpohBiMPDK26aUSu75wI2aIuWDANIC6jUEEBaAtteBGbciUocRDP7oEDDd78uBlYjXerbxG9tLn5O6LFuGiEElyrqGOW4D5zbjwzGM/5TSfaUBTkjIZGi74wgdAxZTOObkzZ72XTKFJPUBTByUlzRpv8PmkXOF3uqpu2mzuMvNTdoTfXiOur+3OVEU2IadROwaKaPLJuxl3qOqBMnvQXN81zYCpYuWqqmGy7/NDFuwt492G72lhDppnvmcNqbWvpwpqLuta2rs58PJu3Kk5VcMjZkZXUMrK3SCDVjk7go5JJDKCyRRSSlA2UvkW4XNY5QSRcjWwPjDeUW1O+ZjOQQ7om8udC6oEYp1IcoIHRcjhaiPI/lKMKJFcc1gStlBJawGU8DlbS5ubZeBvU8ivh8ZhpHVI9nZmYhVUYiYlidABRjaMLzTSu+yk3hZWdu+nEd5c2Qh94EIYqwBBtcW46UAwO2SmLXFOuY5yzKLC4IKkLpYHKdDbiBReDlPhoYe9YYHMLBt40pBkZrKYioVsihZFBIsdOGpJNgx34uHlfDf0dEski7lgcTI45zLoWEmVTmVbm4tbW1UuU2E3AEUmCihkYZgyTSSMACQbqZXUXII1HQbcKqYjHxviWxBVwGxBlygr4BkLkX/L1AHRxq3yy25Hi5hLHG6WUqQ7Kb893Fso08Mjp4Cii0XKLDEENLOu83LsFQFImhEQyoM4z5934WlssdxobScq+WOHxMDokTrJJu81wMpETZlBIN9A8i+bhWk1mm00m2jiBIc6xRxW95Hny+P3R2N/L0VjFYgSKngaC2pIYdhN7FeriR2VEDTWUHorKszWLZVNxxJAKr4lB1t49TVtDr5PtqqKtQIRa+lWDv3cWH3qh7Xl+uk9VZqTuOJbZOH7TKfPNIaVYG2SRgggi4IsR115y5f8AJCTZk1uMDkmJxfRb6K5PBgCB28esD0jWKsuh5HaRDrdfIbU3OnWPOfXXrYKOoeanirseR94nWPP/ADrKqDwF/PXrilU2PJa4c9EbH/K1PGDf4F/3b+qvWNKr1DyiNnSH+7y/upPVThsyb83l/dSeqvVlKnUPKw2RP0YWb9zJ/DWf6FxP5pN+4k/hr1TSqdQ8sDYWJ/M5/wDl5P4Kd9z+L/McR/y0n8FepaVOoeWhydxf5jiP+Wk/gqQcmcaf7hiP+Xk/gr1BSq9Q8xDknj//AMfiP3D/AMNOHI/Hn+4T/uWHzivTdKnUPMw5GbR6MBP+7onsPuZ7RxEgV4WgT30kttB05UBzM3mHaK9DUqdQpbG2bHhoY4IxZI1CLfjYDiT0k8T46VXqVZH/2Q==;" vertex="1" parent="1">
          <mxGeometry x="-173.46" y="318" width="73.92" height="132" as="geometry" />
        </mxCell>
        <mxCell id="uePYLTky3xgfzCpiDaqf-16" value="Спидометр автомобиля" style="rounded=0;whiteSpace=wrap;html=1;fontSize=16;" vertex="1" parent="1">
          <mxGeometry x="590" y="271" width="187" height="22" as="geometry" />
        </mxCell>
        <mxCell id="uePYLTky3xgfzCpiDaqf-17" value="Мерное колесо" style="rounded=0;whiteSpace=wrap;html=1;fontSize=16;" vertex="1" parent="1">
          <mxGeometry x="590" y="124" width="119" height="22" as="geometry" />
        </mxCell>
        <mxCell id="uePYLTky3xgfzCpiDaqf-20" value="" style="shape=image;verticalLabelPosition=bottom;labelBackgroundColor=default;verticalAlign=top;aspect=fixed;imageAspect=0;image=data:image/jpeg,/9j/4AAQSkZJRgABAQAAAQABAAD/2wCEAAkGBw0SDxUOExEQDxAREBAREBARDRUPDREPFRIWFxURExUYHSksGRoxGxUVIj0hMSorLjouFx81RDM4NzQtLjcBCgoKDg0OGBAQGislHSArNS0rLS0tLTUtLS0tKy0tKy0rLS0tLS0tLS0tLS0tLS8tLS0tLS0tKystLS0rLS0tLf/AABEIALkAoAMBEQACEQEDEQH/xAAcAAEBAAMBAQEBAAAAAAAAAAAAAQUGBwQDCAL/xAA6EAABAwIDBQYEBQMEAwAAAAABAAIDBBEFEiEGEzFBUQcUImFxgTJCkaFScrHB8ENi0YKisuEjMzT/xAAaAQEBAAMBAQAAAAAAAAAAAAAAAQMEBQIG/8QAKBEBAAIBBAEDBAIDAAAAAAAAAAECAwQRITESBRNBIjJRYRSBIzOx/9oADAMBAAIRAxEAPwDuKAgICAgICAgICAgICAgICAgICAgICAgICAgICAgICAgICAgICAgICCICCoPhVVcUYzSPZG38T3hjfqSg0nbTtFo6emf3WohqKs2bE2Nwla0kgF7i240Fza+psOqbbysR+WhbDbd1cdYH1M8ssMrsk+8eXNjLj4ZWg6NAOhAsLX00CtiY2d5BURUREVUBBEFQEBAQEBAQEBAQaz2h01TJhswpzLvxkcwQucJXWe3M1uUgnw5tEHF6bs0x6odnfDkzcX1M4z+4uXfZFeHbHYTEMObE+R8crZSW3hzFrZBqGHMBrbUacj0SbbQvj5zwxogliLc7HNDx8wtmGmYeuouOVwpS/kyXx+Ecu59lW0XeKbushvNTAAE8XwcGu8yOB9jzVYm9oiIKgICAgICAgICAgIIgICAg81bRxSsySND28bHqOY6FebV8li006YDbPZGKtpBAzJFJE4Ogdls1h4OaQORHLqAeSta+JNpt2xWy2z1NQuEjQ50zQWvkcfGWn4mho+EXF7eXFUb41wIuNQfpZEVBUEQEFQRAQEBBUBBEFQEBAQRAQYfFafK7eDgfi9f+x9wg+2FVH9Ppqz8vNvsfsUVk0QQEBAQEBAQEBAQEBBEFQRAQEH8TRBzS08D/AC6DX7OY+3BzTp0v/gj9UVnqeYPaHDgfqDzB99ER9UBAQEBAQEBAQEBBUBAQEBBEBBjcXp7jeDi34vy9f5yJRXwwqoyuyHg86eT+nv8AqERmkBAQEBAQEBAQRAQVAQEBAQRBUH8kX05INfqoMjy3kbFpvra+h9b6IrMUNRnZf5ho78w5+nP3RHpQVAQEBBEFQEBAQEEQEBAQEBAQePEqbOzT4m3I6nq3+cwEGLoKnI8O+U2a/wBPld/ORKK2BEEFQRAQEBAQEBBUBAQEBAQEBBEGBxSDI/MPhff0B+Yfv9UV7sJqMzchPiZa3m3kf2RJZFAQEBAQEBAQEBAQEEQVBEBAQVB48Thc6F7WAGTK4xh2jd4ActyOV7D0ug4ANqcQ70J3PeJ6aQkQ2IiDWktkic0cNLgk62vrdS07MkV3d7wPFIqqnjqozdkrA4Dm08HMPmCCPUJEscwyCoiCoCAgIIgIKgICCIKgICCIKgIOG9pNE6lxR9YxjjTybnvBAGVssjXXFh1DL3PMkdFg1GH3a7NrS5/btvL1bDOfSvnlNQ2kpHBroZpHE0+9vrE+NxGYWPEEG7QAdSE09pnHyaula5PpdJ2S2khronuY5jnxPMchZm3Z/DJHmAOUjqOII81narPoCAgiCoIgIKgICAgICAgICAg5d2j7TSUUklOyBs8taYXxOe3eRBjWtZlDAbukztcRa3xg6nRPhdt5aQdmcYq5M1TmiBIcd67VrSNAyMXDdNNRfqLqxMRxC/V3Z2fY/C6CCDJTMYwnLv8AxZ5y8DQSOOp4mwOljoLKI0qftYkixHuUlMzd78Q52yEPa0vyiQ3uDYakaeqDYaraSuldOaYUlNS00ssMlXVvc4udEbSOZG2wDQbi5dyOiIzWyGKy1dFFVSMEb5M+jbhjmte5rZGh2oa4AOA6OHqgzaAgICAgiCoIgICAgICAg57tJFQRYhO+uiY+nqoad0c0tOZY2SR5mPizZTk0yOGo1cSnR01rbBkVLQ96w+svDI9kW77z3hjAQ4gU7nElh43F9BrpbVG71ExPbTNidraqgqHzt/8AO2VpbNG55s9wN2vLtbEEnXXRxHmHJtE9NbxmtmkqHzvdeQvLy4WFnE5ha3rb2TsjnhuGy21EGZkeIiolo2SyTtY2IGOapkfmMlRcjO0EuIGoudRoAfHnXy23e5w323d4wHH6GrZnppmSgcWjR7PJzDq33C977zsxT3yyybHAiCKIKgICAgICAgICAg/kp8kcPzx2rSwS4o6CmgiaYgGTPYwR7yXi4vsNbXAvx4heMuaMccs+DTTmnhpNWJWHIfCB00BCYc0ZIetRpp007S+GHRMfUMY8AtOa4J0uG3H/ABt7r38sHfMOv4hgNGzBqGpYA2Z8MAeeBkzRlzsw6hw49NOi52upWsedZ5dr0nJe+TwvzDXjs9XQAV9M2anc3xNlY0hhH92nw+1uoWLT58sRveOGxrdPpsl5rjmIl1Ts621GIRuilAjrYAN9HwDm3sJWDpe2nIkdQupS2757NhnHLc16l4VAQEBAQRAQEBAQEBBiNqcXFJRTVZ4xRksB4GQ+FjT6uLQnyteZcr7OdkXVgkq55HgveXPfoZHvf4jq4G2hB4cXeS5+TH/IvMfEOvj1H8LFER3LydpWwskDd9HeSL8dvE0/hfb9dB6c5TFOmtvHTNfUV12Pa33x00DZuvpoJy+eDvDHMLAzMBleeDtfLMPLNfiF0PLeP041qR5OibFOfiQo6YgiCmjcHC5IyNkdck9SMrfv1XOy1tmz+FuodrBaul0lslZ+qzthiblyWGUjLlsMtrWtbouh4x9uzheU77/Lh21dO7CMWjrIr5Gva4gfPTPJDoz14OA/0nktTHM48s456np1M0+/hjJPcdu5QyNe0PaQ5rmhzSOBaRcEexW65HHcPoiiCoCAgICCICCoIgIOeduExGGMaP6lXEx35Q17v1aF4u944+uGe7PqdrMOitzzuJ6nOQPsAPZYdJ/r/bb9Rn/PMfEbf8Z+pgY9hY8BzHAhzSLtIPEELNaI8dpadLTWd47flvbfCGQVEoYQ6Leuawg6aO/S37rBgzxNvB0dXprRFcsx23Hsb2hhpWOEujH3bnDSS0tJI0HI5j72WK+WmLPPlPbNTS3z6asU+HX6banDn8KiMfmdkP8Auss9dTimOJaV9BqK91c67YMQpqhgbG5shjikLntILdbFoBHE3aT7rUzZovkpt3Do6XTXrpsk36npvvZ7O5+E0bjx7tG31DRlH2AXTnmHDnaJnZsSIqAgICAgiCoCAgICDQ+2ehdLhD3jUwSxTedgSwn6PJ9l5tG8PVLbWiWF2N25bDSNiewvABdGWkA2cblrgehJ1+y5NNZOHek/D6HP6bOpmMtZ7e81OL4lowd2pj81y0Efm4v9gAvUTn1M/irxFNJovvnysx21vZ6GUb5BJvcjC57XMA4cXNsdDzt91f4dsNvcrJHqMamfavXaJTshwPD56JzpIxJNHK6KRhuGs0Ba5oB1uDe/W45LZ9il/wDJb5aOTVZsM+3Wdtm3VOwOGu+Fj4j1ZKT9nXS2ixWWnq2or3O7k/aBQ9zE0GbN8LWHgSHgEXHWxP0Whi0/jqPGOodjPrPd0PlHcu17JUBp8Ppqd2jo6eJrx/fkGb73Xb/T5Sd5ZhAQEBAQRBUBAQEBAQeaupY5YnwvGZkjHRvb1Y4EEfQrzPWxu/PzaJ+H1xw+oBLGyB0TrWEsBdcZfO19OtwubrdPHnGR9B6drN8c4pnn4d/w+pikja+NzXMIGUt4W6W5ei6GOa3rvWeHDy0vW8xbtMUg3kEkf443t+rSP3UyxvWargnxyVmfy4/spWGimbXg2p3ytpa9vysa/wD9FSR5ODmk9DZanp+S008fw6nq+KKXi23bqu0GOQ0sRkeQXWORgPieeg/ytnPmileXP02mtlttEcORbM0UuMYt3h/ipKWQSzPt4JJhqyJvUCwFujT1Cx6Wnjvae5bOuz1iIxYuodzW25ioogiAgqAgIIgIKgiCoCDW9s9kaXEYd3JdkjLmGdoG8icf1boLjy62KkxvxKxMxO8OXl2PYM452Plpwf8A6IW7yFzRwMjT8JtzNj5nitO2nmk74rbfp0qazHljbPX+2Rf2tCSEsvHG9zSC8NeCLi2jTfXzuV4yXzzG01ZsOHRxbym/9NOq8cpN2+Jssjt6wxubGwnODyIIF9bEa8QDxWrp9Nlpk8nQ1et0uTH4zzsy+zux+N4i1gqDJS0zWta6WYHvUkY0DGMJva1hfQc9eC6Xsb28pcS+tvNfbpxDtWA4LT0dO2lgZkiZ7vc48XuPNx6/tYLYaLJoCAgICAgICAgICAgIIgqCKbDFVezeGynNJR0sjvxPpoy73JCvBy+lDglFCbw01PCescDI3fUBN56OIZFSOE7VVRAQEBAQEBAQEBAQEBAQEBAQEBAQEBAQEBAQEBAQEBAQEBAQEBAQEBAQEBB//9k=;" vertex="1" parent="1">
          <mxGeometry x="601.33" y="149" width="96.33" height="111.38" as="geometry" />
        </mxCell>
        <mxCell id="uePYLTky3xgfzCpiDaqf-21" value="" style="shape=image;verticalLabelPosition=bottom;labelBackgroundColor=default;verticalAlign=top;aspect=fixed;imageAspect=0;image=data:image/jpeg,/9j/4AAQSkZJRgABAQAAAQABAAD/2wCEAAoHCBYWFRgWFRUZGRgaGhwcHBoZGRgYGhocHBoZGRkaGhkcIS4lHh4rHxgYJjgmKy8xNTU1GiQ7QDszPy40NTEBDAwMEA8QHhISGjQsISE0NDQ0NDQ0NDQ0NDQ3NDQ1NDQ0NjQ1Nj80PzU0PzQ0NzQ0NTQ9MTUxNzQ/Pz80PzQ1Mf/AABEIAOEA4QMBIgACEQEDEQH/xAAcAAABBQEBAQAAAAAAAAAAAAAAAgMEBQYBBwj/xABFEAACAQIEAwQHBQQJAgcAAAABAgADEQQSITEFQVEGMmFxEyKBkaGx8BRCUsHRB3KS4RUzU2KCk6KywiM0FhckNUNk8f/EABkBAQEBAQEBAAAAAAAAAAAAAAABAgMEBf/EACIRAQEAAgEEAwEBAQAAAAAAAAABAhEhAxIxQQRRYXGRUv/aAAwDAQACEQMRAD8AjiWvC8QQw1lYRcRdGpYznjdD03g2J2HJvnyl5MRwTFXAF9ZsaFTMoP1edA9CEIBCEIBCEIBCEIBCEIBCEIBCEIBCEIBCEIBCEIBCEIBCEIBCEIHirDSIi2X66zhE5Kt+DYnKw1m+4ViOXI/OeYYZ8pmz4JirgdROmN3EbKEbovmAMclBCEIBCEIBCEIBCEIBCEIBCEIBCEIBCEIBCEIBCEIBCEIBCEIHjLiIIi0N5x5yUhTLvg2KswlJaSMM9iJrG6qPUOGV76ddRLKZLgmLuB1E1NJ7gGbDkIQgEIQgEIQgEIQgEIQgEIQgEIQgEIQgEIQgEIQgEIQgEIQgeJYap4yQ4lThqssqb3nGVqu25zoM6ViZWV3wTFkMBN5w6vfTrqPr62nluHqFSJt+CYzMo11Fp0xu4jWQiKbXAMXKohCEAhCEAhCEAhCEAhCEAhCEAhCEAhCEAhCEAhCEAhCED58B1ljQeQXEVSqWnnlbq3zXE5GqFS8eIm2CCffLrguMysJSNHMPUsRNS6HqvDa9xbkdvP6+UspjuA4zMtr6jaayi+YA/V+c2kOwhCFEIQgEIQgEIQgEIQgEIQgEIQgEIQgEIQgEIQgEIQgeC1EkdlsZLSqroHU3BFwYzUWeZs7hqksFa8pUJvLHD1JrGpYfZYiOnaIvNsrXguMyMJu8PxBEUu7qiEXLMQqqQNyToAR8h1nlvpwnrE2A1J6W1mf472rbEZaditNCbDN3zplZltoR63M78tb6nhHs79u+HjfFJ7FqH5LHsb2wwNIKXxVOzd3K2cnY7Jcjcbz54xDqNzIzV1mlfSGI7X4FEWocVSyta2Vs7agtqq3YaA7jSQuKdvsFRpCoKwq5u6lOzOT4g2yf4rflPns11taBrra0Df8AGf2p4xyRRVaKcsq+kf2uwy+5fbMrie1WOc3bEYk+VR0H8KkD4SsGJHWd+1CamX4zpNTtFjFNxXxQ8q1Yf8pfcM/aNxCmRepnX8NVAw/iGVv9Uyn2oThxIju/DT2/s9+07DVgVxA+zuASSSXptYXsGAuGt90jmACTL/CdssBUDFcXSGXfO3ozz2D2J2O0+cBXFrQFYTLT6OwXbTAVSQmKpggAnOTS0PT0gW+3KRv/ADC4de32nnb+rrW9+S1vGfPa1l18fr684/h3UneB9O4DHU6yB6Tq6HZlII03GmxHSS5869m+11TA1S1Nc6MLOhbKraj1tj6wFwD49ND7vwXi1LFUVrUWurddCrDvKw5EfWkCzhCEAhCEAhCEAhCED5a7L8VyN6Jz6jH1SeTdPIzW1Unm1VbzYdm+K+lTIx9dR/EOvnOWU9tSrBhHKVS0KqRgmxnNVxTe8UwkHDVvGTg2k6SsWKDtDX0ydd/ZM61MSx4tWz1D4aSEwm4GsMul+clphahFwjEdQpI94ETwamGqIpFwaigjqLrcS34rj6lKs9OnUZUUjKt7gXUEgX5XJsOQsJzz6mXdMMZN63z4efqdXKZzp4Sb1vnxpT1KbKbMrKejAg+4ztKi7d1Gb91Wb5CXGJBfCemdi7mplDMe6oJ0A2F9b9dOgi+J1WoJRFJimemCwXZmAX1rddTc89JznyLlrGTndn5uOU+XllrHGTut1+bnlS1aDr3lZf3lZfmImnTZjZVZj0UEn3CXvC6jV0remZnVELBSdMxD6kDci2kawwyYQ1UJV/SWDA2OU5QVPUaXt1kvyLN42cyyfm6X5WUtxsndLJ+bqrbCVALlHA6lSB7yIxeXXCsbVq1UpvVco5IYXtcBWJFxrra0hY4KtaoFsoDMFtstjyt4Aj2zpj1cu64ZSb1vh0w62XfennJuTfHjSFeF4+4zuAmpY2G+pLHKNfMC8lNWpo6oiqyq653YXLkEXtr6qdAN7C5m8s9cScuuXUs1JN1XmN1hoTzGolpisYrVXLIrI5BJUFTsLshJJVuoNwSNesicRw+QkA5lZcyttmVgbG3I7gjqDGOe9SzVsTDqXLUs1bNolJNBPW/2KlvR4kWOT0iEHlmKtnF9r5RTv4EeE8lp933z2P8AYqf/AE2IH/2L++lSH/GdHV6RCEIBCEIBCEIBCEIHyI6xqnVZGDqbMDf+UlEXjNRJzlG54djVroGX/EOYPMRyosxHCeIGg9/uNow8OvmJudGUMpuCLg+czljppHR7GTHxICE35SE6SNi6mmWTGlisqC5JjZk30ekhTrGScBVKMHW11YEX1Fxa2kdrVGdizElibknmZHoc/OOy9s3vXLPbO7u1ysKq1FwoLMPRtU9VdzcB7tfkLg6e3TnYcRKIwXEI1RsqlSrFVC2sFyg6G4N9Tf4CvxWNVsNTpAEMjMT0IOaxv/i2lhxHDtiWFRCioFCLncBjlJuSBe2pOnh4zw3cylz4m7y+bluZS9Tiby5nHvjknDspp1mw6mmFRhUzMXDgq1lCnZt/Wvp43jdH1cMjVQXoszAKrFCGubMxHeFlbpbxvopENClUpuUJqgBWRwwBGhDDcaG99tDOLTapRTDoUBpuxZmYBSSz2Cc2FmvfbaY/fW/PvWvP+sff/Pd596153/SuHvSeoq0KTU6m6uajELbclTfMLXFud7abynxRJdydSXa5Atc5jcgcteUueH4VsM4quyMo0YI4LANpmCkC9ug1kDDVWsxWqiZnNw1uQzBr2JtfTzE69O6ytx5mvN+/p26V1nbhzNSS2+/6j4EqHTMmcEgZSxQG5sPW+hJn2pFqgqhplXbNtpuqqU1AtsRrztGMaSygvUV2Wy5RqbWve/Ppc63iauKWoL1FJcADOpAzgcnB520zDXa4M63Huvdr8vLvlj33us4ssuqfxVWkHVlUWysGTJoDlIVhmtmvcHl3YzxMqVTLTyEoLm/f0yl8g0UEg+e8fxtagapYB6i5VsCQudra5iBcAaXtqSDrIOIrM7Fm3PIaAAaBVHIAWAHhHTxt1dXie6dLG3turxPaLR7vvnr/AOxV/wDpYlelRD71I/4zyHDj1Z6l+xSsL4tL62osBzP9aCQPD1feJ6HqeswhCAQkXE4+mneYDw3PuEp8X2ppr3FLeJ0EDQwmBxfa+oe6Qo8Bf5ykxnHKj952PgSf1k2m49X9IOo98J4v/SLdYRtO55cj20MdIvIpbrHEfkZz02TVSXPZniuRvROfVPdJ5Hp5GVbayNUSXzND0VxKzEprE9nuJ+lTKx9df9Q5GTatOY1qqglLqR4GVpYby4C2jGL4cHGdR63Mcm/nOmNSqZXsdQbHnF/aF/F84p2G3vB/SMunPL7bTaHPtC/i+c56dOojZXwHjpFIg5gQFiunUQ9OnUfGJyr4fCdyDw+EaND06dR7jO+nX8XznMo8PhO5R4QD06/i+cPTr+L5zuUeHwglMswVFzE7BQWYm19ANToCfZA56devznTXHLU9NYpqLBshQh7gZCpD3NrDLvc3GniJPwHBsRUfIlF8wtmzKUVQebM1gPmeV5EQEWwtzm5/Y8hGMq1PuJh2Vm5Bmekyr5kKxt/dnMJ2So0/WxL+lcfcQlKYOm7aM/8ApHgZYYnjAppkQKiAaKgCqN7eqBufLzhLZHouN7QIvdGY9ToJmsf2kZtM1r6WGn0JjK/aRACLkkX2v0uTe3w8ZTVOOnZFI5gm5Ive/MbX/LxhO7bV4nihJ/TXXW9xyGkp8Txgba876/XxmdxGOqPf1iBfY66WsAevUjxkTL1N/hvqdud+cmxc1+NX2BIPQnTz5XkKpxJzr7j4dJGURYQ9JNrp37ZU/GJyH2YdBCDUM4vhy274D9GsA3kRtKZ6RBt8JY+kLak3MCoYW5znLY6WK5HimEXXoW2jSN1mhyhXam4Zdx8RzE3GHxK1EDrsfh1EwziWXAMdkbIx9V/g385bNwaWoJ3DvrOs0ZJsZiC3Sgj6lFJ6kAn4xuphha1hbpYW90Tg60nOtxOs5c6qGw4GgAA6AASXwoIrC6Lb90fpCqsSglNvX+DUsPWphvQUsw0b/ppv1Gmxlh/RVD+wpf5afpPOezvHWokD7vMT0Th/E6dUXVhfod/5yrKX/RVD+wpf5afpD+iqH9hT/gT9JNhCoX9F0P7Cn/lp+k6mCoocy06akfeCqpHXUCR+J8apUVzOw+fy3nn3He3gJsnPYkAqeY2PTrbfmdJNpbI2PF+K0EbPlp5xs7BM2mgsTrMVxvtUMxBa56X1+e2h6aDeYzF8arVD32F+V2tYjYhr3PPbkLWlf6Mc/c2v93qdBroekf1i5LTG8dd+7r0tcc+etumnK59tVUd27x9x0udzEVKwB03sPh9XibM3gJN/SSEuFH17YIpOwjjZF31jFTGHYaCStT8Pil1M4aiL4yA9Qk6mAXW15NrMUp8Z0EbbEsYyGEUamlre3nM91amML9I3X4wjOadjdXUIWdY9JxDFXkU5a4kPEYfmJJpmO1BeWIqQYh1knEU7G49sZOs1BqeE4z0lPXvrofyMlGZXhWL9HUBPdbRvyM1VSSxTtB7GW1CpcSiUyzwLzWNYyP1VjCbybVWVuNxa01LH2DqZ0Z2ex+PSimZtT91eZMueyFWpkzufWY3tyA5CYGkj1qgd9eg5AeE9BwGJShSzu2VQPaT0HjIRtKfEmCFs5UAa3Og98yXHe2x1SmxflcnS+n3fvb7GZDjPaV65KpdU5Addhcjcnx9wkChw92OZ721sD6t9vMjTNcaannMybLkcx3EalZizOWYgetZlPMHflpYg30HjGqeEOrOQNL6Aa2F2IIOmp3H4RJjBKY+t+RA+t5VYnHMxsvO/z5fKW8OflIr4hQNNPLz8PMyKXZzfa/63ja0woux16RqtiydBpJW5PpILIniZGqYpj4SOXvF5CFBYEA7E6X8R1HjM7amP2CJ1rAxBc2tEkzLZZfmJy8QTEloU6WheM+knQbwHc0I3Y9RCQLWLESs7Kjq7x8SM0kIZYlIdesr3SxtLRxItdLiCIDrNNwbFZ6YB7y6Hy5TOyTwrEZKgvs2h/KW8xpphJmGaxkMkR5MUqi5kxuksW+IxCohdzYCY+vWaq+dtvujoJ3HcRau34UXYdT1MSrgaanoBuT0HUzp3bc9LDCutNc73AHTUk9APq0YZ6+KdSLhb2UC5CC1wdBztubfpa8M7LPWtVxDMlMbABdr/AHbnMNzqQNifK2xWISmuSmoVRbaw1/EbaXufhLJtjLLSrwvDkpak3bkVLCwG1+p2OvPwkfHY4AezbysB8pH4jxG1xudffeVQu/rOdPoxbrwkm+aU7u58Ph4waqEFl1MarYjkug6yG72F7/qZjbpMdnqtTW5MXw/BVK9RaVFC7trYWFgNyxOgHiZbdm+yVbGZXb1KJPe0zuLkEIPZbMdPO1psO0mLocMo+gwyKtZx6xGrD95jqfbJWtaY7iGBoYMZHK18UdwCfQ0hbYjTO3np4czSPUZyWcksdyfrQeE4oLEsxuTqSYl2hqOlohmnC0k8N4e1U9EG5k0qMgZjZQWPQSyo8De2ao6oPEi8XV4glO6YdR4udb+X6yuresbsxY880qLQYHCDQ4jXwP6CLXg1F9KWIUnoxH8jKsouQbZsx0sNrbxkoLHQG/wk2aXf/hSr+NPjCUeU/ib+IwlEgTonF5eUJkBjtIxsidRohUk7RgiPqbxpxbz6c5UQayWMYYc5Nr7WO8ixFjQYSvnRTz2Mb4pXyoPE2vIPCq2Vip57SXjENQZEF2JGUSa5W+EbAlqjhKalmOwUEmen8C7J08MnpcSA1W1wpsQm9rbi+x85J7G9mUwNIVKgBrMLkm3qAjYeOns98i8b4qWJuduXn/8AgnSRxyy0Z41xYsd9BpppoNT75kOJcQyiw1Y3/lF8Ux2XS921H53MqkTXO++81b6jEx3zXEp/fc+MYrVy2g2icRVLHwjRbLYDVvLc8gJjf06SfZNV8u41+uk13ZrseCoq4pTqbrSOmnV+f+H39JmcDj/QvnCkuO6SNFvuR4+Ms17a1wbmx8xNSSLb9PTH4iMHReubAAZUS2hOwAHK08jxmLevUarUJLMbyTxbtE+Kyh7BV2UaC/WQXayzOSw3UflEIhb9Ym14pmsJls7hqBd1ppudz4c5ZcYxAQDD09AvfI5npHuztP0dCriWGtiq/L5/KUitca6km5PPWVD7UQaYcDY5TbX2kcjI4Mew2Jam2Yag6Mp2YdDJOLwAKemoetT+8v3qZ6EdPGQqFadiUa8XaRXIRdoQOLyvFMwjec9Z0VG5XhHcw6H3RyhTZjohPmbCcXEusk0MaCZRIbDFR67hB0TU++V1asBogsOp1Y+2T+IVRa8r3CgX3vz5ewSswwY20Uzxp3kaJzkMLbz1zsF2aFNftOIAzboDytvuOXXrM3+znsuazivUBCLqunTnc/D2z0DjGPAGRNFUWFtBpsLTemMstInHeJ5ibHQfPy+tpiOLY8LfXnt7P5yZxbH5QTfl/KZcku2Zthtea8OWt80IpJzvIuIqljYRWJrX22+cTTS2ul/rSYtdcZ7rmQDS2v1tN52F7O0KlD0oZXrm+W+qJ/ctybq3jppvgWxKagoWHg2Wx5gaay17I8bXD4hcuZUchXBIIF9Fb2E+4maw1vlcpuN/gMHhqrtTemEqp3kIHvU8xJj9kaB+4PcI32pw5Zlr09KirnUjmV7ynwIl5w3GirSSoNmUH3ide1xklYTtb2ZoUqQKizMwA/OYDE0cjlQbgfVp6R23xWaoF5U1JPmZ5tUe5J6zjl5dcCFnK/dgkMQNLTMdGr4zT9HwzDKP/kKk/wC6Z5lTL6pe/iBb4TTdpxm4bhXGwCX/AIbTKlbG2/lqPfNZMQER/hXEHw9QOliNmQ9115gj84zeLpUS5sLe02+cy1UniCU3cvRUojW9S49Une3t5SCpNyDykx8BVXSynxzA+F9D4xNXhdSmMzjS+4IOsVJYZtCEJFMS5o9w+UIQiGZF+97RCELD2J7gkHpCEqOmM1YQieVe89jv+xHkv+xZR8R2P11hCbjjn5Y/tB3ZX1O57BCEe0nhDTvD65SS/cPmfkYQmHZSr3YhoQm55HvGO7lP91/kInsb/wBqnm3+4whO9cJ7Y3tf36/s+QmI5GEJ5svLrh4JSdqwhI6NhxP/ANmpea/7pScH/q6v7v5QhNZOcVwnTCEw24u0mYjuDz/WEJWUeEITKv/Z;" vertex="1" parent="1">
          <mxGeometry x="623.22" y="303" width="120.56" height="120.56" as="geometry" />
        </mxCell>
      </root>
    </mxGraphModel>
  </diagram>
</mxfile>
